<?xml version="1.0" encoding="UTF-8" standalone="no"?>
<!-- Created with Inkscape (http://www.inkscape.org/) -->

<svg
   width="15.999992"
   height="15.99998"
   viewBox="0 0 15.999992 15.99998"
   version="1.1"
   id="svg1"
   inkscape:version="1.3.2 (091e20e, 2023-11-25, custom)"
   sodipodi:docname="dynamic_water_2d.svg"
   xmlns:inkscape="http://www.inkscape.org/namespaces/inkscape"
   xmlns:sodipodi="http://sodipodi.sourceforge.net/DTD/sodipodi-0.dtd"
   xmlns="http://www.w3.org/2000/svg"
   xmlns:svg="http://www.w3.org/2000/svg">
  <sodipodi:namedview
     id="namedview1"
     pagecolor="#ffffff"
     bordercolor="#000000"
     borderopacity="0.25"
     inkscape:showpageshadow="2"
     inkscape:pageopacity="0.0"
     inkscape:pagecheckerboard="0"
     inkscape:deskcolor="#d1d1d1"
     inkscape:document-units="px"
     showgrid="true"
     inkscape:zoom="32"
     inkscape:cx="8.140625"
     inkscape:cy="6.609375"
     inkscape:window-width="1858"
     inkscape:window-height="1057"
     inkscape:window-x="1912"
     inkscape:window-y="-8"
     inkscape:window-maximized="1"
     inkscape:current-layer="layer1">
    <inkscape:grid
       id="grid1"
       units="mm"
       originx="-60.000008"
       originy="-125"
       spacingx="0.99999998"
       spacingy="1"
       empcolor="#0099e5"
       empopacity="0.30196078"
       color="#0099e5"
       opacity="0.14901961"
       empspacing="5"
       dotted="false"
       gridanglex="30"
       gridanglez="30"
       visible="true" />
  </sodipodi:namedview>
  <defs
     id="defs1" />
  <g
     inkscape:label="Layer 1"
     inkscape:groupmode="layer"
     id="layer1"
     transform="translate(-60.000007,-125)">
    <path
       style="fill:#45ffa2;fill-opacity:1;stroke-width:0.98994;stroke-linejoin:bevel"
       d="m 61.000009,138.125 3.111109,-1.75 2.333332,1.75 3.111108,-1.75 2.333333,1.75 L 75,136.375 v 1.75 l -3.111109,1.75 -2.333333,-1.75 -3.111108,1.75 -2.333332,-1.75 -3.111109,1.75 v -1.75"
       id="path3" />
    <path
       style="fill:#45ffa2;fill-opacity:1;stroke-width:0.98994;stroke-linejoin:bevel"
       d="m 61.000009,132.96875 3.111109,-1.75 2.333332,1.75 3.111108,-1.75 2.333333,1.75 3.111109,-1.75 v 1.75 l -3.111109,1.75 -2.333333,-1.75 -3.111108,1.75 -2.333332,-1.75 -3.111109,1.75 v -1.75"
       id="path4" />
    <path
       style="fill:#45ffa2;fill-opacity:1;stroke-width:0.98994;stroke-linejoin:bevel"
       d="m 61.000009,128.125 3.111109,-1.75 2.333332,1.75 3.111108,-1.75 2.333333,1.75 L 75,126.375 v 1.75 l -3.111109,1.75 -2.333333,-1.75 -3.111108,1.75 -2.333332,-1.75 -3.111109,1.75 v -1.75"
       id="path5" />
  </g>
</svg>
